<?xml version="1.0" encoding="UTF-8"?>
<svg width="64" height="64" viewBox="0 0 1024 1024" xmlns="http://www.w3.org/2000/svg">
  <rect width="1024" height="1024" rx="220" fill="#14532d"/>
  <g transform="translate(0,0)" fill="#bbf7d0">
    <path d="M512 240 C560 360,560 520,512 640 C464 520,464 360,512 240 Z"/>
    <path d="M380 300 C420 380,420 540,380 610 C320 540,320 380,380 300 Z" transform="rotate(-18 380 455)"/>
    <path d="M644 300 C684 380,684 540,644 610 C584 540,584 380,644 300 Z" transform="rotate(18 644 455)"/>
    <rect x="496" y="636" width="32" height="88" rx="16" />
  </g>
</svg>