<?xml version="1.0" encoding="UTF-8"?>
<svg width="1600" height="512" viewBox="0 0 1600 512" xmlns="http://www.w3.org/2000/svg" role="img" aria-label="TuMarca logo">
  <rect width="1600" height="512" fill="#14532d"/>
  <g transform="translate(64,32)">
    <!-- icon small -->
    <g transform="scale(0.45)">
      <rect x="128" y="64" width="768" height="768" rx="160" fill="none" stroke="#bbf7d0" stroke-width="32"/>
      <g transform="translate(0,-44)" fill="#bbf7d0">
        <path d="M512 240 C560 360,560 520,512 640 C464 520,464 360,512 240 Z"/>
        <path d="M380 300 C420 380,420 540,380 610 C320 540,320 380,380 300 Z" transform="rotate(-18 380 455)"/>
        <path d="M644 300 C684 380,684 540,644 610 C584 540,584 380,644 300 Z" transform="rotate(18 644 455)"/>
        <rect x="496" y="636" width="32" height="88" rx="16" />
      </g>
      <g transform="translate(0,-16)" fill="#bbf7d0">
        <rect x="470" y="748" width="84" height="196" rx="16"/>
        <rect x="402" y="816" width="220" height="60" rx="16"/>
      </g>
    </g>
    <!-- wordmark -->
    <text x="520" y="280" font-family="Poppins, Inter, ui-sans-serif, system-ui" font-size="160" font-weight="700" fill="#bbf7d0">TuMarca</text>
    <text x="520" y="360" font-family="Inter, ui-sans-serif, system-ui" font-size="48" font-weight="500" fill="#bbf7d0">Cuidado, educación y concientización del cannabis medicinal</text>
  </g>
</svg>
